<mxfile host="app.diagrams.net" agent="Mozilla/5.0 (Macintosh; Intel Mac OS X 10_15_7) AppleWebKit/537.36 (KHTML, like Gecko) Chrome/140.0.0.0 Safari/537.36" version="28.2.7">
  <diagram name="Page-1" id="FqooyFmTY3fzpK1Q1sfx">
    <mxGraphModel dx="2630" dy="663" grid="1" gridSize="10" guides="1" tooltips="1" connect="1" arrows="1" fold="1" page="1" pageScale="1" pageWidth="827" pageHeight="1169" math="0" shadow="0">
      <root>
        <mxCell id="0" />
        <mxCell id="1" parent="0" />
        <mxCell id="H09vqWeSScP_DGjtH38k-21" value="" style="rounded=0;whiteSpace=wrap;html=1;fontSize=17;" parent="1" vertex="1">
          <mxGeometry x="-920" y="80" width="850" height="700" as="geometry" />
        </mxCell>
        <mxCell id="H09vqWeSScP_DGjtH38k-22" value="" style="endArrow=none;dashed=1;html=1;dashPattern=1 3;strokeWidth=2;entryX=0;entryY=1;entryDx=0;entryDy=0;strokeColor=#999999;fontSize=14;" parent="1" edge="1">
          <mxGeometry width="50" height="50" relative="1" as="geometry">
            <mxPoint x="-601" y="770" as="sourcePoint" />
            <mxPoint x="-600.9200000000001" y="110" as="targetPoint" />
          </mxGeometry>
        </mxCell>
        <mxCell id="H09vqWeSScP_DGjtH38k-23" value="&lt;span&gt;讲师配置端&lt;/span&gt;" style="rounded=0;whiteSpace=wrap;html=1;fillColor=#e1d5e7;strokeColor=#9673a6;fontSize=20;" parent="1" vertex="1">
          <mxGeometry x="-920" y="80" width="320" height="30" as="geometry" />
        </mxCell>
        <mxCell id="H09vqWeSScP_DGjtH38k-24" value="&lt;span&gt;调度模块&lt;/span&gt;" style="rounded=0;whiteSpace=wrap;html=1;fillColor=#dae8fc;strokeColor=#6c8ebf;fontSize=20;" parent="1" vertex="1">
          <mxGeometry x="-600" y="80" width="270" height="30" as="geometry" />
        </mxCell>
        <mxCell id="H09vqWeSScP_DGjtH38k-25" value="&lt;span&gt;学员训练端&lt;/span&gt;" style="rounded=0;whiteSpace=wrap;html=1;fillColor=#d5e8d4;strokeColor=#82b366;fontSize=20;" parent="1" vertex="1">
          <mxGeometry x="-330" y="80" width="260" height="30" as="geometry" />
        </mxCell>
        <mxCell id="H09vqWeSScP_DGjtH38k-32" value="" style="endArrow=none;dashed=1;html=1;dashPattern=1 3;strokeWidth=2;entryX=0;entryY=1;entryDx=0;entryDy=0;strokeColor=#999999;rounded=1;align=center;verticalAlign=middle;fontFamily=Helvetica;fontSize=14;fontColor=default;labelBackgroundColor=default;" parent="1" edge="1">
          <mxGeometry width="50" height="50" relative="1" as="geometry">
            <mxPoint x="-331" y="780" as="sourcePoint" />
            <mxPoint x="-331.0000000000001" y="110.00000000000011" as="targetPoint" />
          </mxGeometry>
        </mxCell>
        <mxCell id="H09vqWeSScP_DGjtH38k-98" value="讲师" style="shape=umlActor;verticalLabelPosition=bottom;verticalAlign=top;html=1;outlineConnect=0;fontSize=19;" parent="1" vertex="1">
          <mxGeometry x="-900" y="120" width="30" height="60" as="geometry" />
        </mxCell>
        <mxCell id="H09vqWeSScP_DGjtH38k-103" value="" style="edgeStyle=orthogonalEdgeStyle;rounded=0;orthogonalLoop=1;jettySize=auto;html=1;fontSize=14;" parent="1" source="H09vqWeSScP_DGjtH38k-101" target="H09vqWeSScP_DGjtH38k-102" edge="1">
          <mxGeometry relative="1" as="geometry" />
        </mxCell>
        <mxCell id="H09vqWeSScP_DGjtH38k-101" value="创建任务配置" style="rounded=1;whiteSpace=wrap;html=1;fontSize=17;" parent="1" vertex="1">
          <mxGeometry x="-790" y="142.5" width="110" height="40" as="geometry" />
        </mxCell>
        <mxCell id="H09vqWeSScP_DGjtH38k-108" value="" style="edgeStyle=orthogonalEdgeStyle;rounded=0;orthogonalLoop=1;jettySize=auto;html=1;fontSize=14;" parent="1" source="H09vqWeSScP_DGjtH38k-102" target="H09vqWeSScP_DGjtH38k-107" edge="1">
          <mxGeometry relative="1" as="geometry" />
        </mxCell>
        <mxCell id="H09vqWeSScP_DGjtH38k-102" value="创建知识点" style="rounded=1;whiteSpace=wrap;html=1;fontSize=17;" parent="1" vertex="1">
          <mxGeometry x="-790" y="232.5" width="110" height="40" as="geometry" />
        </mxCell>
        <mxCell id="H09vqWeSScP_DGjtH38k-110" value="" style="edgeStyle=orthogonalEdgeStyle;rounded=0;orthogonalLoop=1;jettySize=auto;html=1;fontSize=14;" parent="1" source="H09vqWeSScP_DGjtH38k-107" target="H09vqWeSScP_DGjtH38k-109" edge="1">
          <mxGeometry relative="1" as="geometry" />
        </mxCell>
        <mxCell id="H09vqWeSScP_DGjtH38k-107" value="依据知识点,配置案例内容" style="rounded=1;whiteSpace=wrap;html=1;fontSize=17;" parent="1" vertex="1">
          <mxGeometry x="-790" y="332.5" width="110" height="40" as="geometry" />
        </mxCell>
        <mxCell id="H09vqWeSScP_DGjtH38k-112" value="" style="edgeStyle=orthogonalEdgeStyle;rounded=0;orthogonalLoop=1;jettySize=auto;html=1;fontSize=14;" parent="1" source="H09vqWeSScP_DGjtH38k-109" target="H09vqWeSScP_DGjtH38k-111" edge="1">
          <mxGeometry relative="1" as="geometry" />
        </mxCell>
        <mxCell id="H09vqWeSScP_DGjtH38k-109" value="配置学习任务" style="rounded=1;whiteSpace=wrap;html=1;fontSize=17;" parent="1" vertex="1">
          <mxGeometry x="-790" y="422.5" width="110" height="40" as="geometry" />
        </mxCell>
        <mxCell id="H09vqWeSScP_DGjtH38k-114" value="" style="edgeStyle=orthogonalEdgeStyle;rounded=0;orthogonalLoop=1;jettySize=auto;html=1;fontSize=14;" parent="1" source="H09vqWeSScP_DGjtH38k-111" target="H09vqWeSScP_DGjtH38k-113" edge="1">
          <mxGeometry relative="1" as="geometry">
            <Array as="points">
              <mxPoint x="-620" y="530" />
              <mxPoint x="-620" y="200" />
            </Array>
          </mxGeometry>
        </mxCell>
        <mxCell id="H09vqWeSScP_DGjtH38k-111" value="导入学员名单\或学员报名" style="rounded=1;whiteSpace=wrap;html=1;fontSize=17;" parent="1" vertex="1">
          <mxGeometry x="-790" y="512.5" width="110" height="40" as="geometry" />
        </mxCell>
        <mxCell id="H09vqWeSScP_DGjtH38k-116" value="" style="edgeStyle=orthogonalEdgeStyle;rounded=0;orthogonalLoop=1;jettySize=auto;html=1;fontSize=14;" parent="1" source="H09vqWeSScP_DGjtH38k-113" target="H09vqWeSScP_DGjtH38k-115" edge="1">
          <mxGeometry relative="1" as="geometry" />
        </mxCell>
        <mxCell id="H09vqWeSScP_DGjtH38k-117" value="" style="edgeStyle=orthogonalEdgeStyle;rounded=0;orthogonalLoop=1;jettySize=auto;html=1;fontSize=14;" parent="1" source="H09vqWeSScP_DGjtH38k-113" target="H09vqWeSScP_DGjtH38k-115" edge="1">
          <mxGeometry relative="1" as="geometry" />
        </mxCell>
        <mxCell id="H09vqWeSScP_DGjtH38k-118" value="" style="edgeStyle=orthogonalEdgeStyle;rounded=0;orthogonalLoop=1;jettySize=auto;html=1;fontSize=14;" parent="1" source="H09vqWeSScP_DGjtH38k-113" target="H09vqWeSScP_DGjtH38k-115" edge="1">
          <mxGeometry relative="1" as="geometry" />
        </mxCell>
        <mxCell id="H09vqWeSScP_DGjtH38k-113" value="生成学习任务" style="rounded=1;whiteSpace=wrap;html=1;fontSize=17;" parent="1" vertex="1">
          <mxGeometry x="-520" y="180" width="110" height="40" as="geometry" />
        </mxCell>
        <mxCell id="H09vqWeSScP_DGjtH38k-121" value="" style="edgeStyle=orthogonalEdgeStyle;rounded=0;orthogonalLoop=1;jettySize=auto;html=1;fontSize=14;" parent="1" source="H09vqWeSScP_DGjtH38k-115" target="H09vqWeSScP_DGjtH38k-120" edge="1">
          <mxGeometry relative="1" as="geometry" />
        </mxCell>
        <mxCell id="H09vqWeSScP_DGjtH38k-115" value="生成案例任务" style="rounded=1;whiteSpace=wrap;html=1;fontSize=17;" parent="1" vertex="1">
          <mxGeometry x="-520" y="270" width="110" height="40" as="geometry" />
        </mxCell>
        <mxCell id="H09vqWeSScP_DGjtH38k-123" value="" style="edgeStyle=orthogonalEdgeStyle;rounded=0;orthogonalLoop=1;jettySize=auto;html=1;fontSize=14;" parent="1" source="H09vqWeSScP_DGjtH38k-120" target="H09vqWeSScP_DGjtH38k-122" edge="1">
          <mxGeometry relative="1" as="geometry">
            <Array as="points">
              <mxPoint x="-310" y="390" />
              <mxPoint x="-310" y="170" />
            </Array>
          </mxGeometry>
        </mxCell>
        <mxCell id="H09vqWeSScP_DGjtH38k-120" value="插入统计信息" style="rounded=1;whiteSpace=wrap;html=1;fontSize=17;" parent="1" vertex="1">
          <mxGeometry x="-520" y="370" width="110" height="40" as="geometry" />
        </mxCell>
        <mxCell id="H09vqWeSScP_DGjtH38k-128" value="" style="edgeStyle=orthogonalEdgeStyle;rounded=0;orthogonalLoop=1;jettySize=auto;html=1;fontSize=14;" parent="1" source="H09vqWeSScP_DGjtH38k-122" target="H09vqWeSScP_DGjtH38k-127" edge="1">
          <mxGeometry relative="1" as="geometry" />
        </mxCell>
        <mxCell id="H09vqWeSScP_DGjtH38k-122" value="开始学习" style="rounded=1;whiteSpace=wrap;html=1;fontSize=17;" parent="1" vertex="1">
          <mxGeometry x="-250" y="150" width="107" height="40" as="geometry" />
        </mxCell>
        <mxCell id="H09vqWeSScP_DGjtH38k-124" value="学员" style="shape=umlActor;verticalLabelPosition=bottom;verticalAlign=top;html=1;outlineConnect=0;fontSize=19;" parent="1" vertex="1">
          <mxGeometry x="-120" y="130" width="30" height="60" as="geometry" />
        </mxCell>
        <mxCell id="H09vqWeSScP_DGjtH38k-131" value="" style="edgeStyle=orthogonalEdgeStyle;rounded=0;orthogonalLoop=1;jettySize=auto;html=1;fontSize=14;" parent="1" source="H09vqWeSScP_DGjtH38k-127" target="H09vqWeSScP_DGjtH38k-130" edge="1">
          <mxGeometry relative="1" as="geometry" />
        </mxCell>
        <mxCell id="H09vqWeSScP_DGjtH38k-127" value="登录训练系统" style="rounded=1;whiteSpace=wrap;html=1;fontSize=17;" parent="1" vertex="1">
          <mxGeometry x="-250" y="230" width="107" height="40" as="geometry" />
        </mxCell>
        <mxCell id="H09vqWeSScP_DGjtH38k-129" style="edgeStyle=orthogonalEdgeStyle;rounded=0;orthogonalLoop=1;jettySize=auto;html=1;exitX=0.5;exitY=1;exitDx=0;exitDy=0;fontSize=14;" parent="1" source="H09vqWeSScP_DGjtH38k-127" target="H09vqWeSScP_DGjtH38k-127" edge="1">
          <mxGeometry relative="1" as="geometry" />
        </mxCell>
        <mxCell id="H09vqWeSScP_DGjtH38k-133" value="" style="edgeStyle=orthogonalEdgeStyle;rounded=0;orthogonalLoop=1;jettySize=auto;html=1;fontSize=14;" parent="1" source="H09vqWeSScP_DGjtH38k-130" target="H09vqWeSScP_DGjtH38k-132" edge="1">
          <mxGeometry relative="1" as="geometry" />
        </mxCell>
        <mxCell id="H09vqWeSScP_DGjtH38k-130" value="创建训练记录" style="rounded=1;whiteSpace=wrap;html=1;fontSize=17;" parent="1" vertex="1">
          <mxGeometry x="-250" y="320" width="107" height="40" as="geometry" />
        </mxCell>
        <mxCell id="H09vqWeSScP_DGjtH38k-135" value="" style="edgeStyle=orthogonalEdgeStyle;rounded=0;orthogonalLoop=1;jettySize=auto;html=1;fontSize=14;" parent="1" source="H09vqWeSScP_DGjtH38k-132" target="H09vqWeSScP_DGjtH38k-134" edge="1">
          <mxGeometry relative="1" as="geometry" />
        </mxCell>
        <mxCell id="H09vqWeSScP_DGjtH38k-132" value="完成会话" style="rounded=1;whiteSpace=wrap;html=1;fontSize=17;" parent="1" vertex="1">
          <mxGeometry x="-250" y="410" width="107" height="40" as="geometry" />
        </mxCell>
        <mxCell id="H09vqWeSScP_DGjtH38k-137" value="" style="edgeStyle=orthogonalEdgeStyle;rounded=0;orthogonalLoop=1;jettySize=auto;html=1;fontSize=14;" parent="1" target="H09vqWeSScP_DGjtH38k-136" edge="1">
          <mxGeometry relative="1" as="geometry">
            <mxPoint x="-191.5" y="530" as="sourcePoint" />
          </mxGeometry>
        </mxCell>
        <mxCell id="H09vqWeSScP_DGjtH38k-134" value="完成工作台操作" style="rounded=1;whiteSpace=wrap;html=1;fontSize=17;" parent="1" vertex="1">
          <mxGeometry x="-250" y="510" width="107" height="40" as="geometry" />
        </mxCell>
        <mxCell id="H09vqWeSScP_DGjtH38k-139" value="" style="edgeStyle=orthogonalEdgeStyle;rounded=0;orthogonalLoop=1;jettySize=auto;html=1;fontSize=14;" parent="1" source="H09vqWeSScP_DGjtH38k-136" target="H09vqWeSScP_DGjtH38k-138" edge="1">
          <mxGeometry relative="1" as="geometry" />
        </mxCell>
        <mxCell id="H09vqWeSScP_DGjtH38k-136" value="其他观看视频、考试等内容" style="rounded=1;whiteSpace=wrap;html=1;fontSize=17;" parent="1" vertex="1">
          <mxGeometry x="-260" y="585" width="128.5" height="50" as="geometry" />
        </mxCell>
        <mxCell id="H09vqWeSScP_DGjtH38k-141" value="" style="edgeStyle=orthogonalEdgeStyle;rounded=0;orthogonalLoop=1;jettySize=auto;html=1;fontSize=14;" parent="1" source="H09vqWeSScP_DGjtH38k-138" target="H09vqWeSScP_DGjtH38k-140" edge="1">
          <mxGeometry relative="1" as="geometry" />
        </mxCell>
        <mxCell id="H09vqWeSScP_DGjtH38k-148" value="" style="edgeStyle=orthogonalEdgeStyle;rounded=0;orthogonalLoop=1;jettySize=auto;html=1;fontSize=14;" parent="1" source="H09vqWeSScP_DGjtH38k-138" target="H09vqWeSScP_DGjtH38k-147" edge="1">
          <mxGeometry relative="1" as="geometry" />
        </mxCell>
        <mxCell id="H09vqWeSScP_DGjtH38k-138" value="结案、打判" style="rounded=1;whiteSpace=wrap;html=1;fontSize=17;" parent="1" vertex="1">
          <mxGeometry x="-250" y="660" width="107" height="40" as="geometry" />
        </mxCell>
        <mxCell id="H09vqWeSScP_DGjtH38k-143" value="" style="edgeStyle=orthogonalEdgeStyle;rounded=0;orthogonalLoop=1;jettySize=auto;html=1;fontSize=14;" parent="1" source="H09vqWeSScP_DGjtH38k-140" target="H09vqWeSScP_DGjtH38k-142" edge="1">
          <mxGeometry relative="1" as="geometry" />
        </mxCell>
        <mxCell id="H09vqWeSScP_DGjtH38k-140" value="更新训练信息" style="rounded=1;whiteSpace=wrap;html=1;fontSize=17;" parent="1" vertex="1">
          <mxGeometry x="-520" y="550" width="110" height="40" as="geometry" />
        </mxCell>
        <mxCell id="H09vqWeSScP_DGjtH38k-145" value="" style="edgeStyle=orthogonalEdgeStyle;rounded=0;orthogonalLoop=1;jettySize=auto;html=1;fontSize=14;" parent="1" source="H09vqWeSScP_DGjtH38k-142" target="H09vqWeSScP_DGjtH38k-144" edge="1">
          <mxGeometry relative="1" as="geometry" />
        </mxCell>
        <mxCell id="H09vqWeSScP_DGjtH38k-142" value="统计数据展示" style="rounded=1;whiteSpace=wrap;html=1;fontSize=17;" parent="1" vertex="1">
          <mxGeometry x="-790" y="627.5" width="110" height="40" as="geometry" />
        </mxCell>
        <mxCell id="H09vqWeSScP_DGjtH38k-144" value="结束" style="rounded=1;whiteSpace=wrap;html=1;fontSize=17;" parent="1" vertex="1">
          <mxGeometry x="-790" y="717.5" width="110" height="40" as="geometry" />
        </mxCell>
        <mxCell id="H09vqWeSScP_DGjtH38k-146" value="包含话术信息" style="html=1;shadow=0;dashed=0;align=center;verticalAlign=middle;shape=mxgraph.arrows2.arrow;dy=0;dx=10;notch=10;rotation=0;fillColor=#fff2cc;strokeColor=#d6b656;fontSize=17;" parent="1" vertex="1">
          <mxGeometry x="-900" y="237.5" width="100" height="35" as="geometry" />
        </mxCell>
        <mxCell id="H09vqWeSScP_DGjtH38k-147" value="训练结果展示" style="rounded=1;whiteSpace=wrap;html=1;fontSize=17;" parent="1" vertex="1">
          <mxGeometry x="-250" y="730" width="107" height="40" as="geometry" />
        </mxCell>
        <mxCell id="8XJu3Eyy3YQmSrcErHZ6-1" value="情景模拟,操作" style="html=1;shadow=0;dashed=0;align=center;verticalAlign=middle;shape=mxgraph.arrows2.arrow;dy=0;dx=10;notch=10;rotation=0;fillColor=#fff2cc;strokeColor=#d6b656;fontSize=17;" parent="1" vertex="1">
          <mxGeometry x="-900" y="332.5" width="100" height="35" as="geometry" />
        </mxCell>
      </root>
    </mxGraphModel>
  </diagram>
</mxfile>
